<svg width="800" height="800" viewBox="0 0 800 800" fill="none" xmlns="http://www.w3.org/2000/svg">
  <defs>
    <linearGradient id="leafGradient" x1="0%" y1="0%" x2="100%" y2="100%">
      <stop offset="0%" style="stop-color:#9DC183"/>
      <stop offset="100%" style="stop-color:#8B9B76"/>
    </linearGradient>
    <linearGradient id="flowerGradient" x1="0%" y1="0%" x2="100%" y2="100%">
      <stop offset="0%" style="stop-color:#8B0000"/>
      <stop offset="100%" style="stop-color:#660000"/>
    </linearGradient>
  </defs>
  
  <!-- Background Circle -->
  <circle cx="400" cy="400" r="300" fill="#F8F8F8" opacity="0.5"/>
  
  <!-- Lotus Flower Base -->
  <g transform="translate(400 400)">
    <!-- Petals -->
    <path d="M0,-200 C50,-150 50,-50 0,0 C-50,-50 -50,-150 0,-200" fill="url(#flowerGradient)" transform="rotate(0)"/>
    <path d="M0,-200 C50,-150 50,-50 0,0 C-50,-50 -50,-150 0,-200" fill="url(#flowerGradient)" transform="rotate(60)"/>
    <path d="M0,-200 C50,-150 50,-50 0,0 C-50,-50 -50,-150 0,-200" fill="url(#flowerGradient)" transform="rotate(120)"/>
    <path d="M0,-200 C50,-150 50,-50 0,0 C-50,-50 -50,-150 0,-200" fill="url(#flowerGradient)" transform="rotate(180)"/>
    <path d="M0,-200 C50,-150 50,-50 0,0 C-50,-50 -50,-150 0,-200" fill="url(#flowerGradient)" transform="rotate(240)"/>
    <path d="M0,-200 C50,-150 50,-50 0,0 C-50,-50 -50,-150 0,-200" fill="url(#flowerGradient)" transform="rotate(300)"/>
    
    <!-- Center -->
    <circle cx="0" cy="0" r="30" fill="url(#leafGradient)"/>
  </g>
  
  <!-- Decorative Leaves -->
  <g transform="translate(400 400)">
    <path d="M150,0 C200,50 200,150 150,200 C100,150 100,50 150,0" fill="url(#leafGradient)" opacity="0.8" transform="rotate(45)"/>
    <path d="M150,0 C200,50 200,150 150,200 C100,150 100,50 150,0" fill="url(#leafGradient)" opacity="0.8" transform="rotate(135)"/>
    <path d="M150,0 C200,50 200,150 150,200 C100,150 100,50 150,0" fill="url(#leafGradient)" opacity="0.8" transform="rotate(225)"/>
    <path d="M150,0 C200,50 200,150 150,200 C100,150 100,50 150,0" fill="url(#leafGradient)" opacity="0.8" transform="rotate(315)"/>
  </g>
  
  <!-- Subtle Decorative Elements -->
  <g transform="translate(400 400)" opacity="0.3">
    <circle cx="-150" cy="-150" r="10" fill="#8B0000"/>
    <circle cx="150" cy="-150" r="10" fill="#9DC183"/>
    <circle cx="-150" cy="150" r="10" fill="#9DC183"/>
    <circle cx="150" cy="150" r="10" fill="#8B0000"/>
  </g>
</svg>